REM DIRINDEX 1\2,1\3,1\4,1\5,1\6
REM DIRNAME cjc030,folder01,folder02,folder03,folder04,folder05
TITLE ""
FILE "Disc4Track04.mp3" MP3
  TRACK 01 AUDIO
    TITLE "3:cjc030_06245"
    INDEX 01 00:00:00
  TRACK 02 AUDIO
    TITLE "0:"
    INDEX 01 00:01:13
  TRACK 03 AUDIO
    TITLE "4:cjc030_06246"
    INDEX 01 00:01:22
  TRACK 04 AUDIO
    TITLE "0:"
    INDEX 01 00:03:53
  TRACK 05 AUDIO
    TITLE "5:cjc030_06247"
    INDEX 01 00:03:63
  TRACK 06 AUDIO
    TITLE "0:"
    INDEX 01 00:05:05
  TRACK 07 AUDIO
    TITLE "6:cjc030_06248"
    INDEX 01 00:05:14
  TRACK 08 AUDIO
    TITLE "0:"
    INDEX 01 00:10:19
  TRACK 09 AUDIO
    TITLE "3:cjc030_06249"
    INDEX 01 00:10:68
  TRACK 10 AUDIO
    TITLE "0:"
    INDEX 01 00:12:28
  TRACK 11 AUDIO
    TITLE "4:cjc030_06250"
    INDEX 01 00:12:36
  TRACK 12 AUDIO
    TITLE "0:"
    INDEX 01 00:13:39
  TRACK 13 AUDIO
    TITLE "5:cjc030_06251"
    INDEX 01 00:13:47
  TRACK 14 AUDIO
    TITLE "0:"
    INDEX 01 00:15:05
  TRACK 15 AUDIO
    TITLE "3:cjc030_06252"
    INDEX 01 00:15:66
  TRACK 16 AUDIO
    TITLE "0:"
    INDEX 01 00:16:63
  TRACK 17 AUDIO
    TITLE "4:cjc030_06253"
    INDEX 01 00:17:00
  TRACK 18 AUDIO
    TITLE "0:"
    INDEX 01 00:18:09
  TRACK 19 AUDIO
    TITLE "5:cjc030_06254"
    INDEX 01 00:18:15
  TRACK 20 AUDIO
    TITLE "0:"
    INDEX 01 00:19:18
  TRACK 21 AUDIO
    TITLE "6:cjc030_06255"
    INDEX 01 00:19:30
  TRACK 22 AUDIO
    TITLE "0:"
    INDEX 01 00:25:11
  TRACK 23 AUDIO
    TITLE "3:cjc030_06256"
    INDEX 01 00:25:60
  TRACK 24 AUDIO
    TITLE "0:"
    INDEX 01 00:26:71
  TRACK 25 AUDIO
    TITLE "4:cjc030_06257"
    INDEX 01 00:27:06
  TRACK 26 AUDIO
    TITLE "0:"
    INDEX 01 00:29:29
  TRACK 27 AUDIO
    TITLE "5:cjc030_06258"
    INDEX 01 00:29:38
  TRACK 28 AUDIO
    TITLE "0:"
    INDEX 01 00:30:50
  TRACK 29 AUDIO
    TITLE "6:cjc030_06259"
    INDEX 01 00:30:61
  TRACK 30 AUDIO
    TITLE "0:"
    INDEX 01 00:34:26
  TRACK 31 AUDIO
    TITLE "3:cjc030_06260"
    INDEX 01 00:35:02
  TRACK 32 AUDIO
    TITLE "0:"
    INDEX 01 00:36:19
  TRACK 33 AUDIO
    TITLE "4:cjc030_06261"
    INDEX 01 00:36:27
  TRACK 34 AUDIO
    TITLE "0:"
    INDEX 01 00:38:12
  TRACK 35 AUDIO
    TITLE "5:cjc030_06262"
    INDEX 01 00:38:18
  TRACK 36 AUDIO
    TITLE "0:"
    INDEX 01 00:39:39
  TRACK 37 AUDIO
    TITLE "6:cjc030_06263"
    INDEX 01 00:39:51
  TRACK 38 AUDIO
    TITLE "0:"
    INDEX 01 00:43:66
  TRACK 39 AUDIO
    TITLE "3:cjc030_06264"
    INDEX 01 00:44:42
  TRACK 40 AUDIO
    TITLE "0:"
    INDEX 01 00:45:57
  TRACK 41 AUDIO
    TITLE "4:cjc030_06265"
    INDEX 01 00:45:65
  TRACK 42 AUDIO
    TITLE "0:"
    INDEX 01 00:47:15
  TRACK 43 AUDIO
    TITLE "5:cjc030_06266"
    INDEX 01 00:47:23
  TRACK 44 AUDIO
    TITLE "0:"
    INDEX 01 00:48:42
  TRACK 45 AUDIO
    TITLE "3:cjc030_06267"
    INDEX 01 00:49:16
  TRACK 46 AUDIO
    TITLE "0:"
    INDEX 01 00:50:15
  TRACK 47 AUDIO
    TITLE "4:cjc030_06268"
    INDEX 01 00:50:21
  TRACK 48 AUDIO
    TITLE "0:"
    INDEX 01 00:51:32
  TRACK 49 AUDIO
    TITLE "5:cjc030_06269"
    INDEX 01 00:51:42
  TRACK 50 AUDIO
    TITLE "0:"
    INDEX 01 00:52:41
  TRACK 51 AUDIO
    TITLE "6:cjc030_06270"
    INDEX 01 00:52:53
  TRACK 52 AUDIO
    TITLE "0:"
    INDEX 01 00:54:66
  TRACK 53 AUDIO
    TITLE "3:cjc030_06271"
    INDEX 01 00:55:40
  TRACK 54 AUDIO
    TITLE "0:"
    INDEX 01 00:56:47
  TRACK 55 AUDIO
    TITLE "4:cjc030_06272"
    INDEX 01 00:56:57
  TRACK 56 AUDIO
    TITLE "0:"
    INDEX 01 00:57:64
  TRACK 57 AUDIO
    TITLE "5:cjc030_06273"
    INDEX 01 00:57:72
  TRACK 58 AUDIO
    TITLE "0:"
    INDEX 01 00:59:06
  TRACK 59 AUDIO
    TITLE "6:cjc030_06274"
    INDEX 01 00:59:18
  TRACK 60 AUDIO
    TITLE "0:"
    INDEX 01 01:04:39
  TRACK 61 AUDIO
    TITLE "3:cjc030_06275"
    INDEX 01 01:05:13
  TRACK 62 AUDIO
    TITLE "0:"
    INDEX 01 01:06:18
  TRACK 63 AUDIO
    TITLE "4:cjc030_06276"
    INDEX 01 01:06:24
  TRACK 64 AUDIO
    TITLE "0:"
    INDEX 01 01:07:08
  TRACK 65 AUDIO
    TITLE "5:cjc030_06277"
    INDEX 01 01:07:15
  TRACK 66 AUDIO
    TITLE "0:"
    INDEX 01 01:08:21
  TRACK 67 AUDIO
    TITLE "6:cjc030_06278"
    INDEX 01 01:08:33
  TRACK 68 AUDIO
    TITLE "0:"
    INDEX 01 01:12:40
  TRACK 69 AUDIO
    TITLE "3:cjc030_06279"
    INDEX 01 01:13:14
  TRACK 70 AUDIO
    TITLE "0:"
    INDEX 01 01:14:29
  TRACK 71 AUDIO
    TITLE "4:cjc030_06280"
    INDEX 01 01:14:39
  TRACK 72 AUDIO
    TITLE "0:"
    INDEX 01 01:15:62
  TRACK 73 AUDIO
    TITLE "5:cjc030_06281"
    INDEX 01 01:15:68
  TRACK 74 AUDIO
    TITLE "0:"
    INDEX 01 01:17:08
  TRACK 75 AUDIO
    TITLE "6:cjc030_06282"
    INDEX 01 01:17:24
  TRACK 76 AUDIO
    TITLE "0:"
    INDEX 01 01:22:09
  TRACK 77 AUDIO
    TITLE "3:cjc030_06283"
    INDEX 01 01:22:68
  TRACK 78 AUDIO
    TITLE "0:"
    INDEX 01 01:23:63
  TRACK 79 AUDIO
    TITLE "4:cjc030_06284"
    INDEX 01 01:23:71
  TRACK 80 AUDIO
    TITLE "0:"
    INDEX 01 01:26:11
  TRACK 81 AUDIO
    TITLE "5:cjc030_06285"
    INDEX 01 01:26:15
  TRACK 82 AUDIO
    TITLE "0:"
    INDEX 01 01:27:18
  TRACK 83 AUDIO
    TITLE "6:cjc030_06286"
    INDEX 01 01:27:30
  TRACK 84 AUDIO
    TITLE "0:"
    INDEX 01 01:29:01
